<svg xmlns="http://www.w3.org/2000/svg" viewBox="0 0 512 512" fill="none">
  <defs>
    <linearGradient id="bg" x1="64" y1="48" x2="448" y2="464" gradientUnits="userSpaceOnUse">
      <stop offset="0" stop-color="#1e293b"/>
      <stop offset="1" stop-color="#0b1220"/>
    </linearGradient>
    <linearGradient id="plate" x1="80" y1="120" x2="432" y2="376" gradientUnits="userSpaceOnUse">
      <stop offset="0" stop-color="#1f2937"/>
      <stop offset="1" stop-color="#111827"/>
    </linearGradient>
  </defs>

  <rect x="36" y="36" width="440" height="440" rx="96" fill="url(#bg)"/>
  <rect x="42" y="42" width="428" height="428" rx="90" stroke="#334155" stroke-width="3"/>

  <rect x="78" y="120" width="356" height="272" rx="36" fill="url(#plate)"/>
  <rect x="78" y="120" width="356" height="272" rx="36" stroke="#3b4d63" stroke-width="2"/>

  <rect x="112" y="160" width="44" height="44" rx="10" fill="#293548"/>
  <rect x="168" y="160" width="44" height="44" rx="10" fill="#314258"/>
  <rect x="224" y="160" width="44" height="44" rx="10" fill="#3f5773"/>
  <rect x="280" y="160" width="44" height="44" rx="10" fill="#4e7193"/>
  <rect x="336" y="160" width="44" height="44" rx="10" fill="#5b84aa"/>

  <rect x="112" y="216" width="44" height="44" rx="10" fill="#314258"/>
  <rect x="168" y="216" width="44" height="44" rx="10" fill="#466582"/>
  <rect x="224" y="216" width="44" height="44" rx="10" fill="#587ca0"/>
  <rect x="280" y="216" width="44" height="44" rx="10" fill="#6f97bb"/>
  <rect x="336" y="216" width="44" height="44" rx="10" fill="#84accc"/>

  <rect x="112" y="272" width="44" height="44" rx="10" fill="#3f5773"/>
  <rect x="168" y="272" width="44" height="44" rx="10" fill="#5e824f"/>
  <rect x="224" y="272" width="44" height="44" rx="10" fill="#a4cf52"/>
  <rect x="280" y="272" width="44" height="44" rx="10" fill="#6fd66f"/>
  <rect x="336" y="272" width="44" height="44" rx="10" fill="#48c773"/>

  <rect x="112" y="328" width="156" height="30" rx="10" fill="#293548"/>
  <rect x="280" y="328" width="44" height="30" rx="10" fill="#2c3a4c"/>
  <rect x="336" y="328" width="44" height="30" rx="10" fill="#2c3a4c"/>
</svg>
